<mxfile host="app.diagrams.net" modified="2021-08-09T11:36:25.869Z" agent="5.0 (Windows NT 10.0; Win64; x64) AppleWebKit/537.36 (KHTML, like Gecko) Chrome/92.0.4515.131 Safari/537.36" etag="wtLlVdyca-izSkMtkZd8" version="14.9.5" type="github">
  <diagram id="prtHgNgQTEPvFCAcTncT" name="Page-1">
    <mxGraphModel dx="211" dy="1748" grid="1" gridSize="10" guides="1" tooltips="1" connect="1" arrows="1" fold="1" page="1" pageScale="1" pageWidth="827" pageHeight="1169" math="0" shadow="0">
      <root>
        <mxCell id="0" />
        <mxCell id="1" parent="0" />
        <mxCell id="xOZCHHaRXuY3myuQnnon-3" value="&lt;p style=&quot;line-height: 150%&quot;&gt;&lt;font style=&quot;font-size: 19px&quot;&gt;server.js&amp;nbsp;&lt;/font&gt;&lt;/p&gt;&lt;p style=&quot;line-height: 150% ; font-size: 13px&quot;&gt;&lt;font style=&quot;font-size: 13px&quot;&gt;dependency: express(3rd)&lt;/font&gt;&lt;/p&gt;&lt;p style=&quot;line-height: 150% ; font-size: 13px&quot;&gt;&lt;font style=&quot;font-size: 13px&quot;&gt;&lt;br&gt;&lt;/font&gt;&lt;/p&gt;" style="rounded=0;whiteSpace=wrap;html=1;" vertex="1" parent="1">
          <mxGeometry x="931" y="-1030" width="190" height="150" as="geometry" />
        </mxCell>
        <mxCell id="xOZCHHaRXuY3myuQnnon-8" value="&lt;br&gt;&lt;br&gt;&lt;div style=&quot;color: rgb(187 , 187 , 187) ; background-color: rgb(38 , 35 , 53) ; font-family: &amp;#34;consolas&amp;#34; , &amp;#34;courier new&amp;#34; , monospace ; font-weight: normal ; font-size: 14px ; line-height: 19px&quot;&gt;&lt;div&gt;&lt;span style=&quot;color: #ff8b39&quot;&gt;/status&lt;/span&gt;&lt;/div&gt;&lt;/div&gt;&lt;br&gt;status(request):object" style="whiteSpace=wrap;html=1;aspect=fixed;" vertex="1" parent="1">
          <mxGeometry x="1381" y="-750" width="120" height="120" as="geometry" />
        </mxCell>
        <mxCell id="xOZCHHaRXuY3myuQnnon-10" value="&lt;font style=&quot;font-size: 16px&quot;&gt;object status&lt;br&gt;&lt;span class=&quot;property&quot; style=&quot;font-family: monospace ; font-size: medium ; font-weight: bold&quot;&gt;status&lt;/span&gt;&lt;span style=&quot;font-family: monospace ; font-size: medium&quot;&gt;:&amp;nbsp;&lt;/span&gt;&lt;span class=&quot;type-string&quot; style=&quot;font-family: monospace ; font-size: medium ; color: green&quot;&gt;&quot;running&quot;,&lt;br&gt;&lt;/span&gt;&lt;span class=&quot;property&quot; style=&quot;font-family: monospace ; font-size: medium ; font-weight: bold&quot;&gt;port&lt;/span&gt;&lt;span style=&quot;font-family: monospace ; font-size: medium&quot;&gt;:&amp;nbsp;&lt;/span&gt;&lt;span class=&quot;type-string&quot; style=&quot;font-family: monospace ; font-size: medium ; color: green&quot;&gt;&quot;3001&quot;&lt;/span&gt;&lt;span style=&quot;font-family: monospace ; font-size: medium&quot;&gt;,&lt;/span&gt;&lt;span style=&quot;font-family: monospace ; font-size: medium&quot;&gt;&lt;br&gt;&lt;/span&gt;&lt;ul class=&quot;obj collapsible&quot; style=&quot;list-style-type: none ; padding: 0px ; margin: 0px 0px 0px 2em ; font-family: monospace ; font-size: medium&quot;&gt;&lt;li style=&quot;position: relative&quot;&gt;&lt;div class=&quot;hoverable&quot; style=&quot;transition: 0.2s ease-out 0s ; display: inline-block ; padding: 1px 2px ; border-radius: 2px&quot;&gt;&lt;span class=&quot;property&quot; style=&quot;font-weight: bold&quot;&gt;domain&lt;/span&gt;:&amp;nbsp;&lt;span class=&quot;type-string&quot; style=&quot;color: green&quot;&gt;&quot;&lt;/span&gt;&lt;a href=&quot;https://basic-express-s.herokuapp.com/&quot;&gt;https://basic-express-s.herokuapp.com/&lt;/a&gt;&lt;span class=&quot;type-string&quot; style=&quot;color: green&quot;&gt;&quot;&lt;/span&gt;&lt;/div&gt;&lt;/li&gt;&lt;/ul&gt;&lt;span style=&quot;font-family: monospace ; font-size: medium&quot;&gt;}&lt;/span&gt;&lt;br&gt;&lt;/font&gt;" style="rounded=0;whiteSpace=wrap;html=1;" vertex="1" parent="1">
          <mxGeometry x="870" y="-710" width="312" height="140" as="geometry" />
        </mxCell>
        <mxCell id="xOZCHHaRXuY3myuQnnon-11" value="" style="endArrow=classic;html=1;" edge="1" parent="1">
          <mxGeometry width="50" height="50" relative="1" as="geometry">
            <mxPoint x="1380" y="-700" as="sourcePoint" />
            <mxPoint x="1050" y="-740" as="targetPoint" />
          </mxGeometry>
        </mxCell>
        <mxCell id="xOZCHHaRXuY3myuQnnon-12" value="" style="endArrow=classic;html=1;entryX=0.5;entryY=1;entryDx=0;entryDy=0;" edge="1" parent="1" target="xOZCHHaRXuY3myuQnnon-3">
          <mxGeometry width="50" height="50" relative="1" as="geometry">
            <mxPoint x="1050" y="-740" as="sourcePoint" />
            <mxPoint x="1110" y="-830" as="targetPoint" />
          </mxGeometry>
        </mxCell>
        <mxCell id="xOZCHHaRXuY3myuQnnon-13" value="&lt;font style=&quot;font-size: 18px&quot;&gt;request&lt;/font&gt;" style="endArrow=classic;html=1;exitX=0.996;exitY=0.597;exitDx=0;exitDy=0;exitPerimeter=0;entryX=0.25;entryY=0;entryDx=0;entryDy=0;" edge="1" parent="1" source="xOZCHHaRXuY3myuQnnon-3" target="xOZCHHaRXuY3myuQnnon-8">
          <mxGeometry width="50" height="50" relative="1" as="geometry">
            <mxPoint x="1060" y="-780" as="sourcePoint" />
            <mxPoint x="1110" y="-830" as="targetPoint" />
          </mxGeometry>
        </mxCell>
      </root>
    </mxGraphModel>
  </diagram>
</mxfile>
